<svg width="105" height="33" viewBox="0 0 105 33" fill="none" xmlns="http://www.w3.org/2000/svg">
<path d="M9.24963 20.9694C9.39494 23.4882 9.39494 26.5884 9.24963 30.2698C6.2464 28.9135 3.92133 26.9759 2.32284 24.5539C0.53059 21.7929 -0.195995 18.5474 0.0462008 14.8176C0.239957 11.9113 1.20874 9.2956 3.04942 6.97052C4.64791 4.93608 6.63391 3.2891 9.10431 2.07812L9.15275 2.12661C9.20119 2.12661 9.20119 2.1751 9.24963 2.1751C9.39494 5.22676 9.39494 8.27842 9.24963 11.3785C7.94177 11.6207 7.02143 11.7175 6.39172 11.5237C6.2464 11.2331 6.14953 10.7004 6.2464 9.92535C6.29484 9.10189 6.29484 8.56903 6.14952 8.32684C5.66513 8.47216 5.1323 9.10189 4.50259 10.1675C3.1463 12.5895 2.66191 15.4473 3.19474 18.7896C3.53381 21.0662 4.5026 22.907 6.05265 24.2633C6.2464 24.0211 6.29484 23.5367 6.2464 22.8101C6.19797 21.8413 6.19796 21.26 6.19796 21.0179C7.26362 20.8241 8.2324 20.8241 9.24963 20.9694Z" fill="white"/>
<path d="M20.1968 14.5784C20.3421 19.9067 20.3421 25.2835 20.1968 30.6118C18.9373 31.1446 17.4357 31.3867 15.6435 31.3867C13.8512 31.3867 12.3496 31.1446 11.1386 30.6118C10.9449 28.4804 10.8965 25.235 11.0418 20.7786C11.5746 20.5364 12.5918 20.488 13.9481 20.6818C13.9966 20.8271 13.9966 22.2318 13.9481 24.8959C13.8997 26.9304 13.9481 28.0444 14.045 28.2382C14.2387 28.5288 14.6747 28.7226 15.4013 28.6742C15.9826 28.6742 16.5154 28.5773 16.9998 28.3835C17.242 25.0897 17.2904 21.5052 17.1451 17.6301C16.5638 17.4363 15.595 17.4364 14.1903 17.4364C12.6887 17.4848 11.6715 17.4363 11.1386 17.3394C10.9933 9.0563 10.9449 3.67956 11.0418 1.11229C12.2527 0.676338 13.7544 0.434237 15.595 0.482677C17.3389 0.482677 18.8405 0.724777 20.1483 1.11229C20.2936 4.45459 20.2936 7.79698 20.1483 11.1393C19.1795 11.333 18.2592 11.333 17.2904 11.1393C17.1935 10.2189 17.1935 8.95942 17.1935 7.40937C17.1935 5.27805 17.242 4.01868 17.242 3.58273C16.9513 3.34054 16.4669 3.19519 15.7888 3.19519C15.1107 3.19519 14.5778 3.24363 14.1419 3.43739C14.045 4.59993 14.045 6.39217 14.045 8.76569C14.045 11.8174 14.0934 13.6096 14.0934 14.1425C14.4325 14.2878 15.7888 14.3846 18.1623 14.4815L20.1968 14.5784Z" fill="white"/>
<path d="M25.4307 28.2396C24.026 29.3053 22.9119 29.9835 21.9916 30.1772V2.51856C21.9916 2.42168 22.0885 2.32481 22.1369 2.27637C26.2542 4.06861 28.9668 7.12028 30.2747 11.4798C28.9668 11.6251 28.0465 11.6735 27.4168 11.5766C27.1746 11.3829 26.8839 10.8016 26.448 9.88128C26.1089 9.15469 25.7214 8.67035 25.237 8.47659C24.9464 12.2548 24.8979 17.5346 25.0432 24.2677C25.6245 24.0255 26.2542 23.1052 27.0292 21.5551C27.6589 20.1989 28.0465 19.0362 28.0465 18.0674C28.0465 17.8737 27.8527 17.7769 27.4652 17.7769C26.9808 17.7769 26.7386 17.7768 26.6902 17.7284C26.5448 16.7596 26.5448 15.8393 26.6902 14.8705C28.1433 14.7252 29.5965 14.7252 31.0497 14.8705C31.4372 20.441 29.5481 24.8973 25.4307 28.2396Z" fill="white"/>
<path d="M39.0721 0.695312C39.4733 0.695312 39.8243 0.695361 40.1252 0.745508C40.4261 0.745508 40.6768 0.795631 40.9276 0.845778C41.1783 0.895925 41.429 0.946096 41.6798 0.996243L41.5293 2.60092C41.2786 2.60092 41.0279 2.55073 40.7771 2.55073C40.5264 2.55073 40.3258 2.55073 40.0249 2.55073C39.7742 2.55073 39.4733 2.55073 39.0721 2.55073C38.7712 2.55073 38.5205 2.60095 38.3199 2.75139C38.1193 2.90183 38.019 3.10237 37.9187 3.4534C37.8686 3.80442 37.8185 4.25577 37.8185 4.85754C37.8185 5.4593 37.8686 5.96079 37.9187 6.26167C37.9689 6.6127 38.1193 6.81324 38.3199 6.96368C38.5205 7.11412 38.7712 7.16434 39.0721 7.16434C39.6237 7.16434 40.1252 7.16434 40.5264 7.16434C40.9276 7.16434 41.2786 7.1141 41.6798 7.06395L41.8302 8.66875C41.429 8.81919 41.0279 8.91942 40.6267 8.96956C40.2255 9.01971 39.724 9.06983 39.0721 9.06983C38.2196 9.06983 37.5176 8.91949 36.966 8.66875C36.4645 8.41802 36.0633 7.96665 35.8126 7.36488C35.5618 6.76312 35.4615 5.91067 35.4615 4.90773C35.4615 3.85465 35.5618 3.05222 35.8126 2.45046C36.0633 1.84869 36.4143 1.39744 36.966 1.14671C37.5176 0.845827 38.2196 0.695312 39.0721 0.695312Z" fill="white"/>
<path d="M44.3847 3.10386L44.6354 4.30734L44.836 4.4578V8.97103H42.6797V3.10386H44.3847ZM47.2431 2.95339L47.0425 4.9092H46.4909C46.2401 4.9092 45.9894 4.90913 45.6885 4.95927C45.3876 5.00942 45.0366 5.10971 44.6354 5.21001L44.485 4.0566C44.8862 3.70557 45.2873 3.40472 45.6885 3.20413C46.0897 3.00354 46.4909 2.90332 46.892 2.90332H47.2431V2.95339Z" fill="white"/>
<path d="M50.8061 2.95312C51.8591 2.95312 52.6114 3.10357 53.0627 3.45459C53.514 3.80562 53.7146 4.30714 53.7146 5.0092C53.7146 5.56082 53.5641 5.96194 53.2633 6.21268C52.9624 6.46341 52.4108 6.61388 51.6586 6.61388H48.4491V5.56074H51.0568C51.3075 5.56074 51.5081 5.51062 51.5583 5.46047C51.6084 5.36018 51.6586 5.25986 51.6586 5.05927C51.6586 4.80854 51.6084 4.65815 51.458 4.608C51.3577 4.50771 51.1571 4.50773 50.8562 4.50773C50.6055 4.50773 50.3547 4.50771 50.2043 4.608C50.0539 4.65815 49.9536 4.80861 49.9034 5.0092C49.8533 5.20979 49.8031 5.56077 49.8031 5.96194C49.8031 6.36312 49.8533 6.71415 49.9034 6.96488C49.9536 7.21562 50.104 7.36606 50.2544 7.46635C50.455 7.56665 50.7058 7.61682 51.0066 7.61682C51.2574 7.61682 51.6084 7.61677 52.0096 7.56662C52.4108 7.56662 52.8621 7.5165 53.3134 7.46635L53.514 8.77022C53.2633 8.92066 52.9624 8.97074 52.6615 9.07103C52.3606 9.12118 52.0597 9.17135 51.7087 9.2215C51.4078 9.27164 51.0568 9.27169 50.7559 9.27169C49.9536 9.27169 49.3518 9.17142 48.8503 8.92069C48.399 8.7201 48.048 8.36907 47.8474 7.91775C47.6468 7.46643 47.5465 6.91474 47.5465 6.21268C47.5465 5.46047 47.6468 4.80859 47.8474 4.35726C48.048 3.90594 48.399 3.55491 48.8503 3.35433C49.4019 3.05344 50.0037 2.95312 50.8061 2.95312Z" fill="white"/>
<path d="M59.483 5.4104V6.51361H56.9756C56.775 6.51361 56.6747 6.56378 56.5745 6.66407C56.4742 6.76437 56.4742 6.86464 56.4742 7.01508V7.21562C56.4742 7.36606 56.5243 7.46633 56.6246 7.56662C56.7249 7.66692 56.8753 7.66701 57.0759 7.66701C57.2765 7.66701 57.4771 7.61684 57.6777 7.51655C57.8783 7.41625 58.129 7.31598 58.3296 7.16554C58.5302 7.0151 58.7308 6.86466 58.8812 6.66407V7.41628C58.8311 7.56672 58.7308 7.71711 58.5803 7.86755C58.4299 8.06814 58.2794 8.26878 58.0789 8.41922C57.8783 8.61981 57.6275 8.77025 57.3267 8.92069C57.0258 9.07113 56.6747 9.12123 56.3237 9.12123C55.9727 9.12123 55.6217 9.07113 55.3208 8.92069C55.0199 8.77025 54.7692 8.61976 54.6187 8.36902C54.4181 8.11829 54.368 7.81738 54.368 7.46635V6.86461C54.368 6.41329 54.5184 6.01214 54.8695 5.7614C55.2205 5.51067 55.6718 5.3602 56.2234 5.3602H59.483V5.4104ZM57.8783 2.95312C58.4299 2.95312 58.8311 3.00335 59.2322 3.15379C59.5833 3.30423 59.8842 3.55491 60.0847 3.85579C60.2853 4.20682 60.3856 4.65812 60.3856 5.20974V8.97076H58.6806L58.3797 7.71709L58.2293 7.51655V5.25993C58.2293 5.0092 58.1792 4.85876 58.0287 4.75846C57.9284 4.65817 57.7278 4.608 57.4269 4.608C57.1261 4.608 56.7249 4.608 56.2736 4.608C55.8222 4.608 55.3709 4.6582 54.8695 4.6582L54.6689 3.25406C54.9697 3.20391 55.3208 3.15374 55.6718 3.10359C56.0228 3.05344 56.4742 3.00332 56.8252 3.00332C57.2765 2.95317 57.6275 2.95312 57.8783 2.95312Z" fill="white"/>
<path d="M65.6977 3.10246V4.4564H61.0341V3.20273L62.1874 3.15265H65.6977V3.10246ZM64.1933 1.54785V6.96375C64.1933 7.11419 64.2435 7.26465 64.3438 7.36495C64.4441 7.46524 64.5945 7.46522 64.7951 7.46522H65.4971L65.7479 8.86936C65.5974 8.9195 65.3968 8.96968 65.1963 9.01982C64.9957 9.06997 64.7449 9.06995 64.4942 9.12009C64.2435 9.12009 64.093 9.17029 63.8924 9.17029C63.3408 9.17029 62.8895 9.01977 62.5886 8.71889C62.2877 8.41801 62.0871 8.01688 62.0871 7.51541V1.54785H64.1933Z" fill="white"/>
<path d="M68.0543 0.496094C68.4555 0.496094 68.6561 0.696706 68.6561 1.14803V1.74977C68.6561 2.15094 68.4555 2.4017 68.0543 2.4017H67.1517C66.7505 2.4017 66.5499 2.20109 66.5499 1.74977V1.14803C66.5499 0.746853 66.7505 0.496094 67.1517 0.496094H68.0543ZM68.6561 3.10371V8.97088H66.5499V3.10371H68.6561Z" fill="white"/>
<path d="M76.226 3.10254L74.4208 8.46824C74.3706 8.61868 74.2703 8.7691 74.17 8.81924C74.0697 8.91954 73.9193 8.96971 73.7187 8.96971H71.8633C71.7128 8.96971 71.5624 8.91954 71.4621 8.81924C71.3618 8.71895 71.2615 8.61868 71.2114 8.46824L69.4061 3.10254H71.6627L72.5152 6.51256C72.5653 6.663 72.6155 6.86351 72.6155 7.0641C72.6656 7.26469 72.6656 7.41518 72.7158 7.61577H72.8662C72.9164 7.41518 72.9163 7.26469 72.9665 7.0641C73.0166 6.86351 73.0166 6.71315 73.0668 6.51256L73.9193 3.10254H76.226Z" fill="white"/>
<path d="M79.6425 2.95312C80.6956 2.95312 81.4478 3.10357 81.8992 3.45459C82.3505 3.80562 82.5511 4.30714 82.5511 5.0092C82.5511 5.56082 82.4006 5.96194 82.0997 6.21268C81.7989 6.46341 81.2472 6.61388 80.495 6.61388H77.2856V5.56074H79.8933C80.144 5.56074 80.3446 5.51062 80.3948 5.46047C80.4449 5.36018 80.495 5.25986 80.495 5.05927C80.495 4.80854 80.4449 4.65815 80.2945 4.608C80.1942 4.50771 79.9936 4.50773 79.6927 4.50773C79.442 4.50773 79.1912 4.50771 79.0408 4.608C78.8903 4.65815 78.79 4.80861 78.7399 5.0092C78.6897 5.20979 78.6396 5.56077 78.6396 5.96194C78.6396 6.36312 78.6897 6.71415 78.7399 6.96488C78.79 7.21562 78.9405 7.36606 79.0909 7.46635C79.2915 7.56665 79.5423 7.61682 79.8431 7.61682C80.0939 7.61682 80.4449 7.61677 80.8461 7.56662C81.2472 7.56662 81.6986 7.5165 82.1499 7.46635L82.3505 8.77022C82.0997 8.92066 81.7989 8.97074 81.498 9.07103C81.1971 9.12118 80.8962 9.17135 80.5452 9.2215C80.2443 9.27164 79.8933 9.27169 79.5924 9.27169C78.79 9.27169 78.1883 9.17142 77.6868 8.92069C77.2355 8.7201 76.8845 8.36907 76.6839 7.91775C76.4833 7.46643 76.383 6.91474 76.383 6.21268C76.383 5.46047 76.4833 4.80859 76.6839 4.35726C76.8845 3.90594 77.2355 3.55491 77.6868 3.35433C78.2886 3.05344 78.8903 2.95312 79.6425 2.95312Z" fill="white"/>
<path d="M38.6738 12.4829C39.075 12.4829 39.5263 12.533 40.0779 12.5832C40.5794 12.6333 41.0809 12.7337 41.5322 12.8841L41.3817 14.3383C41.0307 14.3383 40.6295 14.3383 40.1281 14.3383C39.6266 14.3383 39.1251 14.3383 38.6738 14.3383C38.4732 14.3383 38.3228 14.3383 38.2225 14.3383C38.1222 14.3383 38.0219 14.3885 37.9216 14.3885C37.8715 14.4387 37.7712 14.4888 37.7712 14.539C37.721 14.5891 37.721 14.6894 37.721 14.8398C37.721 15.0404 37.7712 15.1909 37.8715 15.2912C37.9718 15.3915 38.1723 15.4917 38.4732 15.592L39.9776 16.1437C40.6295 16.3944 41.0809 16.7454 41.3817 17.0964C41.6325 17.4976 41.7829 17.9489 41.7829 18.6008C41.7829 19.0521 41.7328 19.4533 41.6325 19.7542C41.5322 20.0551 41.3316 20.3058 41.0809 20.5064C40.8301 20.707 40.5292 20.8073 40.0779 20.9076C39.6767 21.0079 39.1753 21.0581 38.5735 21.0581C38.3228 21.0581 37.8715 21.058 37.37 21.0079C36.8184 20.9577 36.2166 20.8575 35.5647 20.7071L35.7151 19.1525C36.1665 19.1525 36.6178 19.1525 36.9688 19.2027C37.3198 19.2027 37.6709 19.2027 37.9216 19.2027C38.1723 19.2027 38.4231 19.2027 38.5735 19.2027C38.8243 19.2027 39.0248 19.2026 39.1753 19.1525C39.3257 19.1023 39.426 19.0522 39.4762 19.002C39.5263 18.9519 39.5765 18.8015 39.5765 18.7012C39.5765 18.5508 39.5765 18.4504 39.5263 18.4003C39.4762 18.3 39.426 18.2499 39.3257 18.1997C39.2254 18.1496 39.075 18.0994 38.9245 18.0493L37.3198 17.3973C36.6679 17.1466 36.2166 16.7956 35.9659 16.4446C35.7151 16.0936 35.5647 15.592 35.5647 14.9903C35.5647 14.5389 35.6148 14.1377 35.7653 13.8369C35.8656 13.536 36.0662 13.2853 36.3169 13.1348C36.5676 12.9844 36.8685 12.834 37.3198 12.7838C37.6207 12.5331 38.1222 12.4829 38.6738 12.4829Z" fill="white"/>
<path d="M44.2852 12.2788C44.6864 12.2788 44.887 12.4794 44.887 12.9307V13.5325C44.887 13.9337 44.6864 14.1844 44.2852 14.1844H43.3826C42.9814 14.1844 42.7808 13.9838 42.7808 13.5325V12.9307C42.7808 12.5296 42.9814 12.2788 43.3826 12.2788H44.2852ZM44.887 14.9366V20.8038H42.7307V14.9366H44.887Z" fill="white"/>
<path d="M47.0954 18.1483L48.0983 18.3488C47.998 18.399 47.9479 18.4491 47.8978 18.5996C47.8476 18.6999 47.8476 18.8003 47.9479 18.9507C47.998 19.051 48.1485 19.1011 48.3491 19.1512L50.5054 19.3518C51.1573 19.4019 51.6086 19.6025 51.9095 19.8532C52.1602 20.1541 52.3107 20.5554 52.3107 21.1571C52.3107 21.7087 52.2104 22.1099 51.9597 22.3606C51.7591 22.6615 51.408 22.812 50.9066 22.9123C50.4553 23.0126 49.8033 23.0627 49.001 23.0627C48.3491 23.0627 47.7975 23.0126 47.3461 22.9625C46.945 22.9123 46.5939 22.812 46.3432 22.6615C46.0925 22.5111 45.942 22.3606 45.8417 22.1601C45.7414 21.9595 45.6913 21.6585 45.6913 21.3577C45.6913 21.1069 45.7414 20.9064 45.8417 20.7058C45.942 20.5053 46.0925 20.3548 46.3432 20.2044C46.5939 20.0539 46.8948 19.9536 47.3461 19.8032L48.2989 19.5524L49.0511 19.8032L48.65 20.0539C48.4494 20.2043 48.2488 20.3548 48.1485 20.4049C47.998 20.5052 47.9479 20.5554 47.8978 20.6556C47.8476 20.7058 47.7975 20.8563 47.7975 20.9566C47.7975 21.0569 47.8476 21.2072 47.8978 21.2574C47.9479 21.3075 48.0983 21.4079 48.2488 21.4079C48.4494 21.458 48.65 21.458 48.9508 21.458C49.3019 21.458 49.5526 21.458 49.7532 21.4079C49.9538 21.3577 50.0541 21.3577 50.1544 21.2574C50.2045 21.2072 50.2547 21.107 50.2547 20.9566C50.2547 20.8061 50.2045 20.756 50.1544 20.7058C50.1042 20.6557 50.0039 20.6055 49.8535 20.6055C49.703 20.5553 49.5526 20.5553 49.3019 20.5052L47.5969 20.3547C47.296 20.3046 46.9951 20.2544 46.8447 20.104C46.6441 19.9535 46.5438 19.8031 46.4435 19.6025C46.3933 19.4019 46.3432 19.2014 46.3933 19.0008C46.4435 18.8002 46.4936 18.5997 46.6441 18.4492C46.6942 18.2988 46.8948 18.1984 47.0954 18.1483ZM48.9007 14.7383C49.6028 14.7383 50.2045 14.7885 50.6057 14.9389C51.0069 15.0894 51.3077 15.2398 51.5083 15.5407C51.7089 15.7914 51.8092 16.1926 51.8092 16.6439C51.8092 17.0952 51.7089 17.4462 51.5585 17.7471C51.3579 17.9978 51.057 18.1984 50.6558 18.3488C50.2045 18.4491 49.6529 18.5495 48.9508 18.5495C48.2488 18.5495 47.6972 18.4993 47.2458 18.3488C46.7945 18.2485 46.4936 18.048 46.3432 17.7471C46.1426 17.4964 46.0423 17.0952 46.0423 16.6439C46.0423 16.1926 46.1426 15.8416 46.3432 15.5407C46.5438 15.2899 46.8447 15.0894 47.296 14.9389C47.647 14.8386 48.1986 14.7383 48.9007 14.7383ZM48.9007 15.992C48.5497 15.992 48.2989 16.0421 48.1986 16.1424C48.0482 16.2427 47.998 16.3932 47.998 16.6439C47.998 16.8946 48.0482 17.0451 48.1986 17.1454C48.3491 17.2457 48.5497 17.2958 48.9007 17.2958C49.2517 17.2958 49.5025 17.2457 49.6529 17.1454C49.8033 17.0451 49.8535 16.8946 49.8535 16.6439C49.8535 16.3932 49.8033 16.2427 49.6529 16.1424C49.5025 16.0421 49.2517 15.992 48.9007 15.992ZM52.4611 14.9389L52.3608 15.7412L50.7561 15.992L50.3048 14.9389H52.4611Z" fill="white"/>
<path d="M55.3244 12.5331V14.3885C55.3244 14.7395 55.3243 15.0404 55.2742 15.3413C55.2241 15.6421 55.1739 15.8929 55.1238 16.0935L55.3244 16.2439V20.7572H53.168V12.4829H55.3244V12.5331ZM57.5308 14.7395C58.6842 14.7395 59.2358 15.2912 59.2358 16.3944V20.7572H57.0795V17.0463C57.0795 16.8457 57.0293 16.7454 56.9792 16.6451C56.929 16.595 56.7786 16.5449 56.578 16.5449C56.3774 16.5449 56.1768 16.595 55.9261 16.6451C55.7255 16.6953 55.4246 16.7956 55.0736 16.9461L54.873 15.9431C55.2742 15.5419 55.7255 15.241 56.1768 15.0405C56.6282 14.8399 57.0795 14.7395 57.5308 14.7395Z" fill="white"/>
<path d="M64.5998 14.9383V16.2922H59.9361V15.0386L61.0895 14.9884H64.5998V14.9383ZM63.0954 13.3335V18.7494C63.0954 18.8998 63.1455 19.0503 63.2458 19.1506C63.3461 19.2509 63.4965 19.2509 63.6971 19.2509H64.3992L64.6499 20.655C64.4995 20.7051 64.2989 20.7553 64.0983 20.8055C63.8977 20.8556 63.647 20.8556 63.3962 20.9057C63.1455 20.9057 62.9951 20.9559 62.7945 20.9559C62.2429 20.9559 61.7915 20.8054 61.4906 20.5045C61.1898 20.2037 60.9892 19.8025 60.9892 19.3011V13.3335H63.0954Z" fill="white"/>
<path d="M71.4706 12.4829C71.8718 12.4829 72.2228 12.483 72.5237 12.5331C72.8246 12.5331 73.1255 12.5832 73.3762 12.6334C73.627 12.6835 73.9278 12.7336 74.1786 12.8339L74.0281 14.4387C73.7272 14.4387 73.4765 14.4387 73.2258 14.4387C72.975 14.4387 72.6742 14.4387 72.4234 14.4387C72.1727 14.4387 71.8217 14.4387 71.5208 14.4387C71.27 14.4387 71.0193 14.4888 70.8187 14.539C70.6181 14.5891 70.4677 14.7395 70.3674 14.89C70.2671 15.0404 70.1668 15.2911 70.1167 15.592C70.0665 15.8929 70.0665 16.2941 70.0665 16.7956C70.0665 17.3974 70.1167 17.8487 70.1668 18.1997C70.217 18.5508 70.3674 18.7513 70.5178 18.9017C70.6683 19.0522 70.919 19.1023 71.2199 19.1023C71.4205 19.1023 71.6211 19.1024 71.7715 19.0522C71.9219 19.0021 72.0724 19.0021 72.2228 18.9519C72.3733 18.9018 72.4736 18.8516 72.5739 18.8015L72.7744 19.7542C72.6742 19.9047 72.5237 20.1052 72.273 20.2557C72.0724 20.4563 71.7715 20.6067 71.4205 20.7572C71.0695 20.9076 70.7184 20.9578 70.2671 20.9578C69.6653 20.9578 69.1639 20.8073 68.7627 20.5064C68.3615 20.2055 68.0606 19.7542 67.9102 19.1525C67.7096 18.5507 67.6093 17.6983 67.6093 16.6953C67.6093 15.6422 67.7096 14.7897 67.9603 14.188C68.2111 13.5862 68.6122 13.1348 69.1639 12.8841C69.8659 12.6334 70.568 12.4829 71.4706 12.4829ZM74.5797 16.0935V20.7572H72.975L72.6742 19.5035L72.4736 19.1023V16.0434H74.5797V16.0935Z" fill="white"/>
<path d="M77.337 14.9373L77.5877 16.1407L77.7883 16.2912V20.8044H75.632V14.9373H77.337ZM80.1953 14.7366L79.9947 16.6924H79.4431C79.1924 16.6924 78.9417 16.6923 78.6408 16.7425C78.3399 16.7926 77.9889 16.8929 77.5877 16.9932L77.4373 15.8398C77.8384 15.4888 78.2396 15.1879 78.6408 14.9873C79.042 14.7867 79.4431 14.6865 79.8443 14.6865H80.1953V14.7366Z" fill="white"/>
<path d="M83.755 14.7383C84.5072 14.7383 85.1591 14.8386 85.6105 15.0392C86.0618 15.2398 86.4128 15.5908 86.6134 16.0422C86.814 16.4935 86.9143 17.0952 86.9143 17.8474C86.9143 18.5996 86.814 19.2014 86.6134 19.6527C86.4128 20.104 86.0618 20.4049 85.6105 20.6055C85.1591 20.806 84.5072 20.9064 83.755 20.9064C83.0028 20.9064 82.3509 20.806 81.8996 20.6055C81.4483 20.4049 81.0972 20.104 80.8966 19.6527C80.6961 19.2014 80.5958 18.5996 80.5958 17.8474C80.5958 17.0952 80.6961 16.4935 80.8966 16.0422C81.0972 15.5908 81.4483 15.2398 81.8996 15.0392C82.3509 14.8386 82.9527 14.7383 83.755 14.7383ZM83.755 16.2427C83.5043 16.2427 83.3037 16.2929 83.2034 16.3932C83.053 16.4934 83.0028 16.6438 82.9025 16.8444C82.8524 17.0952 82.8022 17.396 82.8022 17.8474C82.8022 18.2987 82.8524 18.5996 82.9025 18.8503C82.9527 19.101 83.053 19.2516 83.2034 19.3017C83.3539 19.402 83.5043 19.402 83.755 19.402C84.0058 19.402 84.2063 19.3519 84.3066 19.3017C84.4571 19.2014 84.5574 19.0509 84.6075 18.8503C84.6577 18.5996 84.7078 18.2987 84.7078 17.8474C84.7078 17.396 84.6577 17.0952 84.6075 16.8444C84.5574 16.5937 84.4571 16.4433 84.3066 16.3932C84.1562 16.2929 84.0058 16.2427 83.755 16.2427Z" fill="white"/>
<path d="M89.9702 14.9354V18.6463C89.9702 18.8469 90.0204 18.9472 90.0705 19.0475C90.1708 19.1478 90.3213 19.1477 90.4717 19.1477C90.6723 19.1477 90.8729 19.0976 91.0735 19.0475C91.274 18.9973 91.5248 18.897 91.8257 18.7465L91.9761 19.8498C91.5749 20.2008 91.1737 20.5017 90.7726 20.6522C90.3714 20.8527 89.9702 20.9029 89.5189 20.9029C88.3655 20.9029 87.8139 20.3512 87.8139 19.248V14.8853H89.9702V14.9354ZM93.8315 14.9354V20.8026H92.1265L91.8758 19.599L91.6752 19.4487V14.8853H93.8315V14.9354Z" fill="white"/>
<path d="M96.7412 14.9386L96.9418 15.9415L97.1423 16.142V20.0033L97.0922 20.1538C97.0922 20.4045 97.1423 20.6553 97.1423 20.9562C97.1423 21.2571 97.1423 21.5077 97.1423 21.7585V23.0623H94.986V15.0388H96.7412V14.9386ZM99.1482 14.7881C99.9004 14.7881 100.452 15.0387 100.753 15.5904C101.054 16.142 101.254 16.8942 101.254 17.8972C101.254 18.6995 101.154 19.3013 101.004 19.7526C100.853 20.2039 100.602 20.5048 100.251 20.6553C99.9004 20.8558 99.4992 20.906 99.0479 20.906C98.5966 20.906 98.1954 20.8559 97.8444 20.7055C97.4432 20.555 97.1423 20.3544 96.8916 20.0535L97.042 19.1508C97.2426 19.201 97.4432 19.2511 97.5937 19.3514C97.7942 19.4015 97.9948 19.4518 98.2456 19.4518C98.4462 19.4518 98.5966 19.4015 98.747 19.3514C98.8473 19.3012 98.9476 19.1508 98.9978 18.9001C99.0479 18.6995 99.0981 18.3485 99.0981 17.8972C99.0981 17.4459 99.0479 17.0948 98.9978 16.8942C98.9476 16.6435 98.8473 16.4931 98.747 16.443C98.6468 16.3928 98.4963 16.3426 98.2957 16.3426C98.045 16.3426 97.8444 16.3928 97.694 16.443C97.5435 16.4931 97.3429 16.5933 97.1423 16.7438L96.8415 15.8913C96.9919 15.6907 97.1423 15.4901 97.3931 15.3396C97.6438 15.1892 97.8945 15.0388 98.1954 14.9386C98.4963 14.8383 98.7972 14.7881 99.1482 14.7881Z" fill="white"/>
<path d="M37.4765 30.4167C37.1645 30.4167 36.8845 30.3487 36.6365 30.2127C36.3925 30.0767 36.2005 29.8867 36.0605 29.6427C35.9205 29.3947 35.8505 29.1167 35.8505 28.8087C35.8505 28.5007 35.9205 28.2247 36.0605 27.9807C36.2005 27.7367 36.3925 27.5467 36.6365 27.4107C36.8845 27.2747 37.1645 27.2067 37.4765 27.2067C37.7485 27.2067 37.9905 27.2607 38.2025 27.3687C38.4185 27.4727 38.5885 27.6267 38.7125 27.8307L38.3945 28.0467C38.2905 27.8907 38.1585 27.7747 37.9985 27.6987C37.8385 27.6187 37.6645 27.5787 37.4765 27.5787C37.2485 27.5787 37.0425 27.6307 36.8585 27.7347C36.6785 27.8347 36.5365 27.9787 36.4325 28.1667C36.3325 28.3547 36.2825 28.5687 36.2825 28.8087C36.2825 29.0527 36.3325 29.2687 36.4325 29.4567C36.5365 29.6407 36.6785 29.7847 36.8585 29.8887C37.0425 29.9887 37.2485 30.0387 37.4765 30.0387C37.6645 30.0387 37.8385 30.0007 37.9985 29.9247C38.1585 29.8487 38.2905 29.7327 38.3945 29.5767L38.7125 29.7927C38.5885 29.9967 38.4185 30.1527 38.2025 30.2607C37.9865 30.3647 37.7445 30.4167 37.4765 30.4167ZM41.8788 27.6087H40.6848V30.3867H40.2588V27.6087H39.0648V27.2307H41.8788V27.6087ZM45.3685 27.2307L43.7905 30.7647C43.6625 31.0607 43.5145 31.2707 43.3465 31.3947C43.1785 31.5187 42.9765 31.5807 42.7405 31.5807C42.5885 31.5807 42.4465 31.5567 42.3145 31.5087C42.1825 31.4607 42.0685 31.3887 41.9725 31.2927L42.1705 30.9747C42.3305 31.1347 42.5225 31.2147 42.7465 31.2147C42.8905 31.2147 43.0125 31.1747 43.1125 31.0947C43.2165 31.0147 43.3125 30.8787 43.4005 30.6867L43.5385 30.3807L42.1285 27.2307H42.5725L43.7605 29.9127L44.9485 27.2307H45.3685ZM49.1495 30.0147V31.1487H48.7475V30.3867H45.9215V31.1487H45.5195V30.0147H45.6995C45.9115 30.0027 46.0555 29.8467 46.1315 29.5467C46.2075 29.2467 46.2595 28.8267 46.2875 28.2867L46.3295 27.2307H48.6575V30.0147H49.1495ZM46.6775 28.3107C46.6575 28.7587 46.6195 29.1287 46.5635 29.4207C46.5075 29.7087 46.4075 29.9067 46.2635 30.0147H48.2315V27.6087H46.7135L46.6775 28.3107ZM50.1597 27.2307H50.5857V29.7387L52.6917 27.2307H53.0697V30.3867H52.6437V27.8787L50.5437 30.3867H50.1597V27.2307ZM56.8946 27.2307V30.3867H56.5046V29.3427H55.5146H55.3946L54.6626 30.3867H54.2006L54.9866 29.2827C54.7426 29.2147 54.5546 29.0987 54.4226 28.9347C54.2906 28.7707 54.2246 28.5627 54.2246 28.3107C54.2246 27.9587 54.3446 27.6907 54.5846 27.5067C54.8246 27.3227 55.1526 27.2307 55.5686 27.2307H56.8946ZM54.6566 28.3227C54.6566 28.7907 54.9546 29.0247 55.5506 29.0247H56.5046V27.6087H55.5806C54.9646 27.6087 54.6566 27.8467 54.6566 28.3227ZM62.0496 28.7547C62.4776 28.8547 62.6916 29.1127 62.6916 29.5287C62.6916 29.8047 62.5896 30.0167 62.3856 30.1647C62.1816 30.3127 61.8776 30.3867 61.4736 30.3867H60.0396V27.2307H61.4316C61.7916 27.2307 62.0736 27.3007 62.2776 27.4407C62.4816 27.5807 62.5836 27.7807 62.5836 28.0407C62.5836 28.2127 62.5356 28.3607 62.4396 28.4847C62.3476 28.6047 62.2176 28.6947 62.0496 28.7547ZM60.4536 28.6347H61.4016C61.6456 28.6347 61.8316 28.5887 61.9596 28.4967C62.0916 28.4047 62.1576 28.2707 62.1576 28.0947C62.1576 27.9187 62.0916 27.7867 61.9596 27.6987C61.8316 27.6107 61.6456 27.5667 61.4016 27.5667H60.4536V28.6347ZM61.4556 30.0507C61.7276 30.0507 61.9316 30.0067 62.0676 29.9187C62.2036 29.8307 62.2716 29.6927 62.2716 29.5047C62.2716 29.3167 62.2096 29.1787 62.0856 29.0907C61.9616 28.9987 61.7656 28.9527 61.4976 28.9527H60.4536V30.0507H61.4556ZM66.63 28.9407H63.99C64.014 29.2687 64.14 29.5347 64.368 29.7387C64.596 29.9387 64.884 30.0387 65.232 30.0387C65.428 30.0387 65.608 30.0047 65.772 29.9367C65.936 29.8647 66.078 29.7607 66.198 29.6247L66.438 29.9007C66.298 30.0687 66.122 30.1967 65.91 30.2847C65.702 30.3727 65.472 30.4167 65.22 30.4167C64.896 30.4167 64.608 30.3487 64.356 30.2127C64.108 30.0727 63.914 29.8807 63.774 29.6367C63.634 29.3927 63.564 29.1167 63.564 28.8087C63.564 28.5007 63.63 28.2247 63.762 27.9807C63.898 27.7367 64.082 27.5467 64.314 27.4107C64.55 27.2747 64.814 27.2067 65.106 27.2067C65.398 27.2067 65.66 27.2747 65.892 27.4107C66.124 27.5467 66.306 27.7367 66.438 27.9807C66.57 28.2207 66.636 28.4967 66.636 28.8087L66.63 28.9407ZM65.106 27.5727C64.802 27.5727 64.546 27.6707 64.338 27.8667C64.134 28.0587 64.018 28.3107 63.99 28.6227H66.228C66.2 28.3107 66.082 28.0587 65.874 27.8667C65.67 27.6707 65.414 27.5727 65.106 27.5727ZM69.289 27.3087C69.581 27.3087 69.841 27.3747 70.069 27.5067C70.301 27.6347 70.481 27.8167 70.609 28.0527C70.737 28.2847 70.801 28.5507 70.801 28.8507C70.801 29.1587 70.733 29.4327 70.597 29.6727C70.465 29.9087 70.279 30.0927 70.039 30.2247C69.799 30.3567 69.523 30.4227 69.211 30.4227C68.687 30.4227 68.281 30.2387 67.993 29.8707C67.705 29.5027 67.561 28.9947 67.561 28.3467C67.561 27.6707 67.689 27.1527 67.945 26.7927C68.205 26.4327 68.609 26.1887 69.157 26.0607L70.573 25.7367L70.645 26.1267L69.313 26.4327C68.861 26.5327 68.529 26.7107 68.317 26.9667C68.105 27.2187 67.989 27.5927 67.969 28.0887C68.097 27.8447 68.275 27.6547 68.503 27.5187C68.731 27.3787 68.993 27.3087 69.289 27.3087ZM69.223 30.0687C69.443 30.0687 69.639 30.0187 69.811 29.9187C69.987 29.8147 70.123 29.6707 70.219 29.4867C70.319 29.3027 70.369 29.0947 70.369 28.8627C70.369 28.6307 70.321 28.4267 70.225 28.2507C70.129 28.0747 69.993 27.9387 69.817 27.8427C69.645 27.7427 69.447 27.6927 69.223 27.6927C68.999 27.6927 68.799 27.7427 68.623 27.8427C68.451 27.9387 68.315 28.0747 68.215 28.2507C68.119 28.4267 68.071 28.6307 68.071 28.8627C68.071 29.0947 68.119 29.3027 68.215 29.4867C68.315 29.6707 68.453 29.8147 68.629 29.9187C68.805 30.0187 69.003 30.0687 69.223 30.0687ZM71.7066 28.5747H73.2786V28.9467H71.7066V28.5747ZM77.4372 30.0147V31.1487H77.0352V30.3867H74.2092V31.1487H73.8072V30.0147H73.9872C74.1992 30.0027 74.3432 29.8467 74.4192 29.5467C74.4952 29.2467 74.5472 28.8267 74.5752 28.2867L74.6172 27.2307H76.9452V30.0147H77.4372ZM74.9652 28.3107C74.9452 28.7587 74.9072 29.1287 74.8512 29.4207C74.7952 29.7087 74.6952 29.9067 74.5512 30.0147H76.5192V27.6087H75.0012L74.9652 28.3107ZM78.4474 27.2307H78.8734V29.7387L80.9794 27.2307H81.3574V30.3867H80.9314V27.8787L78.8314 30.3867H78.4474V27.2307ZM84.2298 28.7427C84.4538 28.7947 84.6258 28.8847 84.7458 29.0127C84.8698 29.1407 84.9318 29.2967 84.9318 29.4807C84.9318 29.6647 84.8678 29.8287 84.7398 29.9727C84.6158 30.1167 84.4458 30.2287 84.2298 30.3087C84.0138 30.3847 83.7758 30.4227 83.5158 30.4227C83.2878 30.4227 83.0638 30.3907 82.8438 30.3267C82.6238 30.2587 82.4318 30.1607 82.2678 30.0327L82.4118 29.7147C82.5558 29.8227 82.7238 29.9067 82.9158 29.9667C83.1078 30.0267 83.3018 30.0567 83.4978 30.0567C83.7898 30.0567 84.0278 30.0027 84.2118 29.8947C84.3998 29.7827 84.4938 29.6327 84.4938 29.4447C84.4938 29.2767 84.4178 29.1467 84.2658 29.0547C84.1138 28.9587 83.9058 28.9107 83.6418 28.9107H83.1018V28.5987H83.6178C83.8538 28.5987 84.0438 28.5547 84.1878 28.4667C84.3318 28.3747 84.4038 28.2527 84.4038 28.1007C84.4038 27.9327 84.3218 27.8007 84.1578 27.7047C83.9978 27.6087 83.7878 27.5607 83.5278 27.5607C83.1878 27.5607 82.8518 27.6467 82.5198 27.8187L82.3998 27.4887C82.7758 27.2927 83.1658 27.1947 83.5698 27.1947C83.8098 27.1947 84.0258 27.2307 84.2178 27.3027C84.4138 27.3707 84.5658 27.4687 84.6738 27.5967C84.7858 27.7247 84.8418 27.8727 84.8418 28.0407C84.8418 28.2007 84.7858 28.3427 84.6738 28.4667C84.5658 28.5907 84.4178 28.6827 84.2298 28.7427ZM87.1649 27.2067C87.5769 27.2067 87.8929 27.3107 88.1129 27.5187C88.3329 27.7227 88.4429 28.0267 88.4429 28.4307V30.3867H88.0349V29.8947C87.9389 30.0587 87.7969 30.1867 87.6089 30.2787C87.4249 30.3707 87.2049 30.4167 86.9489 30.4167C86.5969 30.4167 86.3169 30.3327 86.1089 30.1647C85.9009 29.9967 85.7969 29.7747 85.7969 29.4987C85.7969 29.2307 85.8929 29.0147 86.0849 28.8507C86.2809 28.6867 86.5909 28.6047 87.0149 28.6047H88.0169V28.4127C88.0169 28.1407 87.9409 27.9347 87.7889 27.7947C87.6369 27.6507 87.4149 27.5787 87.1229 27.5787C86.9229 27.5787 86.7309 27.6127 86.5469 27.6807C86.3629 27.7447 86.2049 27.8347 86.0729 27.9507L85.8809 27.6327C86.0409 27.4967 86.2329 27.3927 86.4569 27.3207C86.6809 27.2447 86.9169 27.2067 87.1649 27.2067ZM87.0149 30.0807C87.2549 30.0807 87.4609 30.0267 87.6329 29.9187C87.8049 29.8067 87.9329 29.6467 88.0169 29.4387V28.9227H87.0269C86.4869 28.9227 86.2169 29.1107 86.2169 29.4867C86.2169 29.6707 86.2869 29.8167 86.4269 29.9247C86.5669 30.0287 86.7629 30.0807 87.0149 30.0807ZM89.7569 27.2307H90.1829V29.7387L92.2889 27.2307H92.6669V30.3867H92.2409V27.8787L90.1409 30.3867H89.7569V27.2307ZM91.1909 26.7747C90.9189 26.7747 90.7029 26.7067 90.5429 26.5707C90.3829 26.4347 90.3009 26.2427 90.2969 25.9947H90.6029C90.6069 26.1507 90.6629 26.2767 90.7709 26.3727C90.8789 26.4647 91.0189 26.5107 91.1909 26.5107C91.3629 26.5107 91.5029 26.4647 91.6109 26.3727C91.7229 26.2767 91.7809 26.1507 91.7849 25.9947H92.0909C92.0869 26.2427 92.0029 26.4347 91.8389 26.5707C91.6789 26.7067 91.4629 26.7747 91.1909 26.7747ZM94.0678 27.2307H94.4938V28.6287H96.4798V27.2307H96.9058V30.3867H96.4798V28.9947H94.4938V30.3867H94.0678V27.2307ZM99.3826 27.2067C99.7946 27.2067 100.111 27.3107 100.331 27.5187C100.551 27.7227 100.661 28.0267 100.661 28.4307V30.3867H100.253V29.8947C100.157 30.0587 100.015 30.1867 99.8266 30.2787C99.6426 30.3707 99.4226 30.4167 99.1666 30.4167C98.8146 30.4167 98.5346 30.3327 98.3266 30.1647C98.1186 29.9967 98.0146 29.7747 98.0146 29.4987C98.0146 29.2307 98.1106 29.0147 98.3026 28.8507C98.4986 28.6867 98.8086 28.6047 99.2326 28.6047H100.235V28.4127C100.235 28.1407 100.159 27.9347 100.007 27.7947C99.8546 27.6507 99.6326 27.5787 99.3406 27.5787C99.1406 27.5787 98.9486 27.6127 98.7646 27.6807C98.5806 27.7447 98.4226 27.8347 98.2906 27.9507L98.0986 27.6327C98.2586 27.4967 98.4506 27.3927 98.6746 27.3207C98.8986 27.2447 99.1346 27.2067 99.3826 27.2067ZM99.2326 30.0807C99.4726 30.0807 99.6786 30.0267 99.8506 29.9187C100.023 29.8067 100.151 29.6467 100.235 29.4387V28.9227H99.2446C98.7046 28.9227 98.4346 29.1107 98.4346 29.4867C98.4346 29.6707 98.5046 29.8167 98.6446 29.9247C98.7846 30.0287 98.9806 30.0807 99.2326 30.0807Z" fill="#B8B8B8"/>
</svg>
